<?xml version="1.0" encoding="UTF-8"?>
<svg viewBox="0 0 75.360008 73.137146" xmlns="http://www.w3.org/2000/svg">
 <defs>
  <linearGradient id="b" x1="279.92" x2="298.99" y1="487.99" y2="508.32" gradientUnits="userSpaceOnUse">
   <stop stop-color="#f09092" offset="0"/>
   <stop stop-color="#f2acac" offset=".25"/>
   <stop stop-color="#f5c8c7" offset=".5"/>
   <stop stop-color="#cf8885" offset=".75"/>
   <stop stop-color="#aa4944" offset="1"/>
  </linearGradient>
  <linearGradient id="a" x1="235.89" x2="247.02" y1="538.62" y2="549.69" gradientUnits="userSpaceOnUse">
   <stop stop-color="#ddb090" offset="0"/>
   <stop stop-color="#ebd1bf" offset=".5"/>
   <stop stop-color="#ce8d60" offset="1"/>
  </linearGradient>
 </defs>
 <g transform="translate(-229.26 -482.76)">
  <path d="m229.76 555.4 3.2561-9.2703 6.923-19.71s42.261-41.677 44.49-42.78 4.573 0.56973 4.573 0.56973 4.6354 2.0837 8.8807 6.9637 6.3782 7.5724 6.23 10.106-44.48 43.032-44.48 43.032l-19.735 7.3258-10.138 3.7632z" fill="url(#b)" stroke="#000"/>
  <path d="m238.94 529.62 0.38756 3.2698 7.1132-2.1889 1.3838 9.042 7.9794 0.42929 0.7179 5.1518 3.1176-1.0132 18.5-17.192s-3.9188-6.1573-9.3203-11.495c-5.3588-5.2956-9.8054-7.9366-9.8054-7.9366l-19.069 18.732-1.0054 3.2009z" fill="#fba635" stroke="#000"/>
  <path d="m246.44 530.7 19.09-18.227s1.1615 0.58399 4.7343 4.4807 4.7759 5.49 4.7759 5.49l-19.237 17.728-7.9794-0.42929-1.3838-9.042z" fill="#f5b25f"/>
  <path d="m256.52 545.32 3.1176-1.0132 18.5-17.192-3.0994-4.6745-19.237 17.728 0.7179 5.1518z" fill="#b54d0e"/>
  <path d="m233.35 545.72 6.2295 5.8246-9.8159 3.8538 3.5863-9.6784z"/>
  <path d="m238.94 529.62 0.38756 3.2698 7.1132-2.1889 1.3838 9.042 7.9794 0.42929 0.7179 5.1518 3.1176-1.0132 18.5-17.192s-3.9188-6.1573-9.3203-11.495c-5.3588-5.2956-9.8054-7.9366-9.8054-7.9366l-19.069 18.732-1.0054 3.2009z" fill="none" stroke="#000"/>
  <path d="m233.35 545.72 6.2295 5.8246 16.94-6.2219-0.7179-5.1518-7.9794-0.42929-1.3838-9.042-7.1132 2.1889-0.38756-3.2698-5.5873 16.101z" fill="url(#a)" stroke="#000"/>
  <path d="m273.13 494.59s6.4173 2.3893 10.652 7.017 8.9574 11.889 8.9574 11.889l-14.604 13.619s-6.3353-9.5962-9.4724-12.121-9.6533-7.311-9.6533-7.311l14.12-13.093z" fill="#7e5f56"/>
  <path d="m259.01 507.69 6.5161 4.7864 14.588-13.997-6.9844-3.8825-14.12 13.093" fill="#d6c8c6"/>
  <path d="m265.53 512.47 3.8736 3.2765 5.6365 6.6943 14.372-13.104s-1.6856-4.1009-3.6664-6.1677-5.6278-4.6966-5.6278-4.6966" fill="#ece4e2"/>
  <path d="m273.13 494.59s6.4173 2.3893 10.652 7.017 8.9574 11.889 8.9574 11.889l-14.604 13.619s-5.7015-8.2713-8.7359-11.369c-2.8179-2.8765-10.39-8.0629-10.39-8.0629l14.12-13.093z" fill="none" stroke="#000"/>
 </g>
</svg>
