<?xml version="1.0" encoding="UTF-8"?>
<svg viewBox="0 0 640 480" xmlns="http://www.w3.org/2000/svg">
 <path d="m629.76 61.296l15.824 13.316c-1.3928 3.2384-4.9373 6.8389-10.592 10.875-2.8273 1.208-4.2618 2.4411-4.2618 3.6492 0 0.38648 0.71728 1.402 2.1099 3.0208-90.85 52.442-167.9 101.64-231.32 147.61 85.238 64.549 137.31 101.5 156.34 110.73-3.5446 11.31-11.266 19.986-23.25 26.027-4.22 2.0304-9.4946 4.4229-15.866 7.2498-11.225 5.2924-16.837 8.0956-16.837 8.5307v0.55609l3.1646 6.6457c-2.8691 0.79727-5.359 2.2236-7.4265 4.2289-7.7645 5.268-16.246 8.9172-25.36 10.923-2.8272 0-6.3292-1.208-10.634-3.6492-2.7848-1.1601-6.2875-2.61-10.507-4.2288-4.2618-1.6188-6.2874-2.4411-6.2874-2.4411-0.7598-0.38648-1.4346-0.604-2.1519-0.604 0 0-1.0972 0.43509-3.2072 1.2323-14.769 10.512-28.146 17.158-40.13 19.986-2.11 0-4.9372-0.60403-8.4393-1.8364-22.533-13.268-46.459-30.644-71.819-52.007-21.098-18.149-36.922-31.102-47.556-38.763l-10.507 8.4585-72.916 54.496c-9.1566 6.8632-35.192 27.453-78.191 61.698h-13.756l-20.128-12.663c1.4345-3.2384 2.1943-4.8572 2.1943-4.8572 1.3927-2.4168 2.0675-3.6005 2.0675-3.6005 0-2.4168-2.11-3.6492-6.3293-3.6492s-10.549 1.2567-18.989 3.6492c-0.75978 0-2.8272 0.57965-6.3293 1.8128-7.7645-2.4412-19.031-10.512-33.842-24.191-4.22-3.6005-6.2874-6.066-6.2874-7.274 0-0.79724 1.7726-2.6343 5.2746-5.462 4.9372-4.4708 7.3846-8.0721 7.3846-10.875 0-0.79724-3.502-5.5099-10.549-13.92-3.502-6.066-5.2321-9.0625-5.2321-9.0625l51.734-38.135 115.16-76.198c2.8273-2.4648 5.6545-4.4708 8.4393-6.066-45.742-45.578-83.044-90.746-111.95-135.55-6.3293-10.899-10.169-18.56-11.604-22.982 9.8738-8.8693 22.871-17.786 39.117-26.656 7.0472 3.2384 12.279 5.6788 15.824 7.274 2.7848 2.8276 5.612 4.2289 8.4393 4.2289 7.0472 0 11.604-2.9965 13.714-9.0625 2.1518-11.31 10.929-17.158 26.458-17.545 4.9373 0 11.604 2.61 20.044 7.8301 44.433 41.567 87.053 78.469 127.82 110.76 91.652-57.686 167.27-102.25 227.19-133.74 11.984-6.0417 18.609-9.0625 20.086-9.0625 3.5021 0 14.094 5.0269 31.732 15.104l6.2876 4.8572c0 0.79723-1.0547 2.1992-3.1648 4.2532-1.3926 0.79726-2.0674 1.5952-2.0674 2.3925 0 1.208 6.2874 4.4464 18.904 9.7152l15.908-2.4168 6.2849 5.3897v8e-6z" fill="#f00"/>
</svg>
